<svg xmlns="http://www.w3.org/2000/svg" viewBox="0 0 220 200" fill="none">
  <!-- Varian terang untuk section navy -->
  <path d="M28 158 C 58 62, 162 62, 194 134" stroke="#7FAEE8" stroke-width="7" stroke-linecap="round"/>
  <path d="M50 98 L 170 60" stroke="#7FAEE8" stroke-width="6" stroke-linecap="round"/>
  <circle cx="50" cy="98" r="10" fill="#DCEBFF"/>
  <circle cx="170" cy="60" r="10" fill="#DCEBFF"/>
  <rect x="99" y="68" width="20" height="20" rx="4" fill="#0D1B3D" stroke="#DCEBFF" stroke-width="6"/>
  <rect x="16" y="148" width="17" height="17" rx="3" fill="#12275E" stroke="#7FAEE8" stroke-width="5"/>
  <rect x="186" y="124" width="17" height="17" rx="3" fill="#12275E" stroke="#7FAEE8" stroke-width="5"/>
  <path d="M109 94 C 95 113 87 126 87 136 C 87 150 96 158 109 158 C 122 158 131 150 131 136 C 131 126 123 113 109 94 Z" fill="#DCEBFF" stroke="#7FAEE8" stroke-width="6" stroke-linejoin="round"/>
  <circle cx="109" cy="136" r="7.5" fill="#0D1B3D" stroke="#7FAEE8" stroke-width="4"/>
  <path d="M109 100 L109 128" stroke="#0D1B3D" stroke-width="4" stroke-linecap="round"/>
</svg>
